<svg width="370.000000" height="238.000000" viewBox="0 0 370 238" fill="none" xmlns="http://www.w3.org/2000/svg" xmlns:xlink="http://www.w3.org/1999/xlink">
	<desc>
			Created with Pixso.
	</desc>
	<defs>
		<filter id="filter_3_573_dd" x="198.000000" y="99.000000" width="172.000000" height="139.000000" filterUnits="userSpaceOnUse" color-interpolation-filters="sRGB">
			<feFlood flood-opacity="0" result="BackgroundImageFix"/>
			<feColorMatrix in="SourceAlpha" type="matrix" values="0 0 0 0 0 0 0 0 0 0 0 0 0 0 0 0 0 0 127 0" result="hardAlpha"/>
			<feMorphology radius="6" in="" result="BackgroundImageFix"/>
			<feOffset dx="1" dy="1"/>
			<feGaussianBlur stdDeviation="4.66667"/>
			<feComposite in2="hardAlpha" operator="out" k2="-1" k3="1"/>
			<feColorMatrix type="matrix" values="0 0 0 0 0.78431 0 0 0 0 0.78431 0 0 0 0 0.78431 0 0 0 0.15 0"/>
			<feBlend mode="normal" in2="BackgroundImageFix" result="effect_dropShadow_1"/>
			<feBlend mode="normal" in="SourceGraphic" in2="effect_dropShadow_1" result="shape"/>
		</filter>
		<clipPath id="clip3_573">
			<rect id="Calendar_Flatline 1" rx="0.000000" width="131.000000" height="98.000000" transform="translate(217.500000 118.500000)" fill="white" fill-opacity="0"/>
		</clipPath>
		<linearGradient x1="-0.000076" y1="141.180664" x2="421.686646" y2="33.017944" id="paint_linear_3_560_0" gradientUnits="userSpaceOnUse">
			<stop stop-color="#FFA450"/>
			<stop offset="0.604477" stop-color="#FF5C00"/>
		</linearGradient>
		<linearGradient x1="49.999962" y1="142.698700" x2="411.445801" y2="37.969940" id="paint_linear_3_561_0" gradientUnits="userSpaceOnUse">
			<stop offset="0.302902" stop-color="#FF7A00" stop-opacity="0.101961"/>
			<stop offset="0.641250" stop-color="#FFFFFF" stop-opacity="0.258824"/>
		</linearGradient>
		<linearGradient x1="50.000053" y1="142.698822" x2="411.445770" y2="37.969971" id="paint_linear_3_562_0" gradientUnits="userSpaceOnUse">
			<stop offset="0.302902" stop-color="#FF7A00" stop-opacity="0.101961"/>
			<stop offset="0.641250" stop-color="#FFFFFF" stop-opacity="0.258824"/>
		</linearGradient>
		<linearGradient x1="252.198975" y1="184.019226" x2="334.892365" y2="161.380524" id="paint_linear_3_577_0" gradientUnits="userSpaceOnUse">
			<stop stop-color="#FFA450"/>
			<stop offset="0.604477" stop-color="#FF5C00"/>
		</linearGradient>
		<linearGradient x1="261.077606" y1="152.529877" x2="302.521637" y2="151.077423" id="paint_linear_3_579_0" gradientUnits="userSpaceOnUse">
			<stop stop-color="#37C871"/>
			<stop offset="1.000000" stop-color="#5FE394"/>
		</linearGradient>
		<linearGradient x1="276.949310" y1="170.455460" x2="280.972504" y2="169.317627" id="paint_linear_3_602_0" gradientUnits="userSpaceOnUse">
			<stop stop-color="#37C871"/>
			<stop offset="1.000000" stop-color="#5FE394"/>
		</linearGradient>
		<linearGradient x1="277.685028" y1="170.455292" x2="280.642242" y2="169.317230" id="paint_linear_3_603_0" gradientUnits="userSpaceOnUse">
			<stop stop-color="#37C871"/>
			<stop offset="1.000000" stop-color="#5FE394"/>
		</linearGradient>
		<linearGradient x1="300.820190" y1="178.878204" x2="304.843536" y2="177.737656" id="paint_linear_3_604_0" gradientUnits="userSpaceOnUse">
			<stop stop-color="#37C871"/>
			<stop offset="1.000000" stop-color="#5FE394"/>
		</linearGradient>
		<linearGradient x1="301.555756" y1="178.881287" x2="304.515076" y2="177.743088" id="paint_linear_3_605_0" gradientUnits="userSpaceOnUse">
			<stop stop-color="#37C871"/>
			<stop offset="1.000000" stop-color="#5FE394"/>
		</linearGradient>
		<linearGradient x1="307.050415" y1="192.314087" x2="316.803314" y2="188.707718" id="paint_linear_3_606_0" gradientUnits="userSpaceOnUse">
			<stop stop-color="#FFA450"/>
			<stop offset="0.604477" stop-color="#FF5C00"/>
		</linearGradient>
		<linearGradient x1="271.943481" y1="146.619370" x2="273.803223" y2="145.827301" id="paint_linear_3_611_0" gradientUnits="userSpaceOnUse">
			<stop stop-color="#FFA450"/>
			<stop offset="0.604477" stop-color="#FF5C00"/>
		</linearGradient>
		<linearGradient x1="286.984131" y1="146.621902" x2="288.827271" y2="145.835236" id="paint_linear_3_612_0" gradientUnits="userSpaceOnUse">
			<stop stop-color="#FFA450"/>
			<stop offset="0.604477" stop-color="#FF5C00"/>
		</linearGradient>
		<linearGradient x1="301.672363" y1="146.621506" x2="303.511597" y2="145.834213" id="paint_linear_3_613_0" gradientUnits="userSpaceOnUse">
			<stop stop-color="#FFA450"/>
			<stop offset="0.604477" stop-color="#FF5C00"/>
		</linearGradient>
		<linearGradient x1="230.310593" y1="180.072861" x2="238.363251" y2="158.146729" id="paint_linear_3_614_0" gradientUnits="userSpaceOnUse">
			<stop stop-color="#FFA450"/>
			<stop offset="0.604477" stop-color="#FF5C00"/>
		</linearGradient>
		<linearGradient x1="229.421158" y1="161.453796" x2="229.276276" y2="183.002579" id="paint_linear_3_616_0" gradientUnits="userSpaceOnUse">
			<stop stop-color="#FFA450"/>
			<stop offset="0.604477" stop-color="#FF5C00"/>
		</linearGradient>
		<linearGradient x1="229.196777" y1="154.046768" x2="230.918350" y2="154.003540" id="paint_linear_3_618_0" gradientUnits="userSpaceOnUse">
			<stop stop-color="#FFA450"/>
			<stop offset="0.604477" stop-color="#FF5C00"/>
		</linearGradient>
		<linearGradient x1="229.325439" y1="156.564606" x2="231.114594" y2="156.519501" id="paint_linear_3_620_0" gradientUnits="userSpaceOnUse">
			<stop stop-color="#FFA450"/>
			<stop offset="0.604477" stop-color="#FF5C00"/>
		</linearGradient>
		<linearGradient x1="229.454224" y1="159.068436" x2="232.460007" y2="158.997025" id="paint_linear_3_622_0" gradientUnits="userSpaceOnUse">
			<stop stop-color="#FFA450"/>
			<stop offset="0.604477" stop-color="#FF5C00"/>
		</linearGradient>
		<linearGradient x1="229.586182" y1="161.600342" x2="231.307755" y2="161.558990" id="paint_linear_3_624_0" gradientUnits="userSpaceOnUse">
			<stop stop-color="#FFA450"/>
			<stop offset="0.604477" stop-color="#FF5C00"/>
		</linearGradient>
		<linearGradient x1="229.714844" y1="164.118256" x2="231.539780" y2="164.075027" id="paint_linear_3_626_0" gradientUnits="userSpaceOnUse">
			<stop stop-color="#FFA450"/>
			<stop offset="0.604477" stop-color="#FF5C00"/>
		</linearGradient>
		<linearGradient x1="229.843628" y1="166.624466" x2="232.849411" y2="166.553055" id="paint_linear_3_628_0" gradientUnits="userSpaceOnUse">
			<stop stop-color="#FFA450"/>
			<stop offset="0.604477" stop-color="#FF5C00"/>
		</linearGradient>
		<linearGradient x1="241.275848" y1="184.294968" x2="246.628998" y2="166.997284" id="paint_linear_3_630_0" gradientUnits="userSpaceOnUse">
			<stop stop-color="#FFA450"/>
			<stop offset="0.604477" stop-color="#FF5C00"/>
		</linearGradient>
		<linearGradient x1="243.291016" y1="160.496628" x2="247.099930" y2="157.114563" id="paint_linear_3_632_0" gradientUnits="userSpaceOnUse">
			<stop stop-color="#FFA450"/>
			<stop offset="0.604477" stop-color="#FF5C00"/>
		</linearGradient>
		<linearGradient x1="244.530930" y1="157.706665" x2="245.406876" y2="157.193665" id="paint_linear_3_634_0" gradientUnits="userSpaceOnUse">
			<stop stop-color="#37C871"/>
			<stop offset="1.000000" stop-color="#5FE394"/>
		</linearGradient>
		<linearGradient x1="244.428696" y1="157.767960" x2="245.505630" y2="157.187622" id="paint_linear_3_635_0" gradientUnits="userSpaceOnUse">
			<stop stop-color="#37C871"/>
			<stop offset="1.000000" stop-color="#5FE394"/>
		</linearGradient>
		<linearGradient x1="238.194519" y1="178.686630" x2="242.406174" y2="165.073990" id="paint_linear_3_636_0" gradientUnits="userSpaceOnUse">
			<stop stop-color="#FFA450"/>
			<stop offset="0.604477" stop-color="#FF5C00"/>
		</linearGradient>
		<linearGradient x1="239.770020" y1="160.076019" x2="242.783752" y2="157.320618" id="paint_linear_3_638_0" gradientUnits="userSpaceOnUse">
			<stop stop-color="#FFA450"/>
			<stop offset="0.604477" stop-color="#FF5C00"/>
		</linearGradient>
		<linearGradient x1="240.717041" y1="157.838440" x2="241.981384" y2="156.797302" id="paint_linear_3_640_0" gradientUnits="userSpaceOnUse">
			<stop stop-color="#FFA450"/>
			<stop offset="0.604477" stop-color="#FF5C00"/>
		</linearGradient>
		<linearGradient x1="238.911972" y1="178.968933" x2="241.496323" y2="165.424866" id="paint_linear_3_642_0" gradientUnits="userSpaceOnUse">
			<stop stop-color="#FFA450"/>
			<stop offset="0.604477" stop-color="#FF5C00"/>
		</linearGradient>
		<linearGradient x1="234.999390" y1="174.100403" x2="238.385773" y2="168.930420" id="paint_linear_3_644_0" gradientUnits="userSpaceOnUse">
			<stop stop-color="#FFA450"/>
			<stop offset="0.604477" stop-color="#FF5C00"/>
		</linearGradient>
		<linearGradient x1="234.834839" y1="164.827499" x2="239.496506" y2="159.707169" id="paint_linear_3_646_0" gradientUnits="userSpaceOnUse">
			<stop stop-color="#FFA450"/>
			<stop offset="0.604477" stop-color="#FF5C00"/>
		</linearGradient>
		<linearGradient x1="226.876953" y1="188.372345" x2="251.952988" y2="172.841843" id="paint_linear_3_649_0" gradientUnits="userSpaceOnUse">
			<stop stop-color="#FFA450"/>
			<stop offset="0.604477" stop-color="#FF5C00"/>
		</linearGradient>
		<linearGradient x1="328.480591" y1="166.670074" x2="345.441803" y2="158.724411" id="paint_linear_3_652_0" gradientUnits="userSpaceOnUse">
			<stop stop-color="#FFA450"/>
			<stop offset="0.604477" stop-color="#FF5C00"/>
		</linearGradient>
	</defs>
	<rect id="Rectangle 38" rx="7.000000" width="350.000000" height="189.000000" fill="url(#paint_linear_3_560_0)" fill-opacity="1.000000"/>
	<path id="Rectangle 39" d="M219 86C364 86 350 6 350 6L350 182C350 185.86 346.86 189 343 189L50 189C50 189 74 86 219 86Z" fill="url(#paint_linear_3_561_0)" fill-opacity="0.590000" fill-rule="nonzero"/>
	<path id="Rectangle 40" d="M170 55C315 55 350 6 350 6L350 182C350 185.86 346.86 189 343 189L50 189C50 189 25 55 170 55Z" fill="url(#paint_linear_3_562_0)" fill-opacity="0.590000" fill-rule="nonzero"/>
	<g opacity="0.970000" filter="url(#filter_3_573_dd)">
		<rect id="Calendar_Flatline 1" rx="0.000000" width="131.000000" height="98.000000" transform="translate(217.500000 118.500000)" fill="#FFFFFF" fill-opacity="0"/>
		<g clip-path="url(#clip3_573)">
			<path id="Vector" d="M320 147.93L263.43 147.93C263.11 147.92 262.79 147.98 262.5 148.11C262.21 148.24 261.95 148.43 261.73 148.67C261.52 148.91 261.37 149.2 261.28 149.5C261.2 149.81 261.18 150.13 261.23 150.45L266.64 191.5C266.75 192.19 267.09 192.82 267.62 193.28C268.14 193.74 268.81 194 269.51 194.02L326.08 194.02C326.4 194.03 326.72 193.96 327.01 193.84C327.3 193.71 327.56 193.52 327.78 193.27C327.99 193.03 328.14 192.75 328.23 192.44C328.31 192.13 328.33 191.81 328.28 191.5L322.87 150.45C322.76 149.76 322.42 149.13 321.89 148.67C321.37 148.21 320.7 147.94 320 147.93Z" fill="#FBFBFB" fill-opacity="1.000000" fill-rule="nonzero"/>
			<path id="Vector" d="M326.08 194.17L269.51 194.17C268.78 194.15 268.07 193.87 267.52 193.39C266.97 192.9 266.61 192.24 266.5 191.52L261.09 150.47C261.03 150.13 261.06 149.78 261.15 149.46C261.25 149.13 261.41 148.82 261.63 148.56C261.86 148.31 262.14 148.12 262.45 147.98C262.76 147.85 263.1 147.78 263.43 147.79L320 147.79C320.73 147.81 321.43 148.08 321.98 148.56C322.53 149.04 322.9 149.7 323.01 150.42L328.42 191.47C328.48 191.81 328.45 192.15 328.36 192.48C328.26 192.81 328.1 193.11 327.88 193.37C327.65 193.63 327.37 193.83 327.06 193.97C326.75 194.1 326.42 194.17 326.08 194.17ZM263.43 148.07C263.14 148.07 262.84 148.12 262.57 148.24C262.3 148.36 262.05 148.53 261.85 148.75C261.66 148.98 261.52 149.25 261.43 149.53C261.35 149.82 261.33 150.12 261.37 150.42L266.79 191.47C266.89 192.12 267.21 192.72 267.71 193.16C268.21 193.6 268.85 193.85 269.51 193.86L326.08 193.86C326.37 193.87 326.67 193.81 326.94 193.7C327.21 193.58 327.46 193.4 327.65 193.18C327.85 192.95 328 192.68 328.08 192.4C328.16 192.11 328.18 191.8 328.14 191.5L322.72 150.46C322.62 149.8 322.3 149.2 321.8 148.77C321.3 148.33 320.66 148.08 320 148.06L263.43 148.07Z" fill="#FBFBFB" fill-opacity="1.000000" fill-rule="nonzero"/>
			<path id="Vector" d="M258.46 154.47L320.83 154.47L314.61 191.5C314.47 192.19 314.11 192.82 313.57 193.28C313.03 193.74 312.35 194 311.64 194.02L254.35 194.02C254.04 194.03 253.72 193.97 253.43 193.84C253.14 193.71 252.88 193.52 252.68 193.28C252.47 193.03 252.33 192.75 252.25 192.44C252.18 192.13 252.17 191.81 252.24 191.5L258.46 154.47Z" fill="url(#paint_linear_3_577_0)" fill-opacity="0.620000" fill-rule="nonzero"/>
			<path id="Vector" d="M311.65 194.17L254.35 194.17C254.02 194.18 253.69 194.12 253.38 193.98C253.07 193.85 252.8 193.64 252.58 193.39C252.36 193.13 252.21 192.82 252.12 192.49C252.04 192.16 252.03 191.81 252.09 191.47L258.31 154.44C258.32 154.41 258.34 154.38 258.36 154.35C258.39 154.33 258.42 154.32 258.46 154.32L320.83 154.32C320.85 154.32 320.87 154.32 320.89 154.33C320.91 154.34 320.93 154.35 320.95 154.37C320.96 154.39 320.97 154.41 320.97 154.43C320.98 154.45 320.98 154.47 320.98 154.49L314.75 191.52C314.61 192.25 314.23 192.9 313.66 193.39C313.1 193.87 312.39 194.14 311.65 194.17ZM258.57 154.62L252.39 191.52C252.33 191.82 252.34 192.12 252.41 192.41C252.49 192.7 252.62 192.97 252.81 193.2C253 193.41 253.24 193.58 253.51 193.7C253.78 193.81 254.06 193.86 254.35 193.85L311.65 193.85C312.32 193.83 312.96 193.58 313.47 193.15C313.98 192.71 314.33 192.11 314.46 191.46L320.65 154.6L258.57 154.62Z" fill="#FBFBFB" fill-opacity="1.000000" fill-rule="nonzero"/>
			<path id="Vector" d="M262.09 147.93L319.38 147.93C319.7 147.92 320.02 147.98 320.31 148.11C320.6 148.24 320.86 148.43 321.06 148.67C321.26 148.92 321.41 149.2 321.49 149.51C321.56 149.82 321.56 150.14 321.5 150.45L320.84 154.46L258.47 154.46L259.13 150.45C259.26 149.75 259.63 149.13 260.16 148.67C260.7 148.21 261.38 147.95 262.09 147.93Z" fill="url(#paint_linear_3_579_0)" fill-opacity="1.000000" fill-rule="nonzero"/>
			<path id="Vector" d="M320.82 154.61L258.45 154.61C258.43 154.61 258.41 154.61 258.39 154.6C258.37 154.59 258.35 154.57 258.34 154.56C258.32 154.54 258.31 154.52 258.31 154.5C258.3 154.48 258.3 154.46 258.3 154.44L258.96 150.43C259.11 149.7 259.5 149.04 260.06 148.56C260.63 148.08 261.35 147.81 262.09 147.79L319.38 147.79C319.72 147.78 320.05 147.85 320.36 147.99C320.67 148.12 320.94 148.32 321.16 148.57C321.38 148.84 321.53 149.15 321.62 149.48C321.7 149.81 321.71 150.16 321.65 150.49L320.99 154.5C320.98 154.54 320.96 154.57 320.93 154.59C320.9 154.61 320.86 154.62 320.82 154.61ZM258.64 154.31L320.7 154.31L321.36 150.43C321.42 150.13 321.41 149.83 321.34 149.54C321.26 149.25 321.13 148.98 320.94 148.75C320.75 148.54 320.51 148.37 320.24 148.25C319.97 148.14 319.68 148.08 319.39 148.09L262.09 148.09C261.42 148.12 260.78 148.37 260.27 148.8C259.76 149.24 259.41 149.84 259.28 150.49L258.64 154.31Z" fill="#FBFBFB" fill-opacity="1.000000" fill-rule="nonzero"/>
			<path id="Vector" d="M263.83 188.51L263.8 188.51C263.78 188.51 263.76 188.5 263.75 188.49C263.73 188.48 263.72 188.47 263.71 188.45C263.69 188.44 263.69 188.42 263.68 188.4C263.68 188.38 263.68 188.36 263.68 188.34L268.68 158.58C268.68 158.54 268.71 158.5 268.74 158.48C268.77 158.46 268.81 158.45 268.85 158.46C268.89 158.46 268.93 158.48 268.95 158.52C268.97 158.55 268.98 158.59 268.97 158.63L263.98 188.39C263.97 188.42 263.95 188.46 263.93 188.48C263.9 188.5 263.86 188.51 263.83 188.51Z" fill="#FBFBFB" fill-opacity="1.000000" fill-rule="nonzero"/>
			<path id="Vector" d="M272.18 188.51L272.16 188.51C272.14 188.51 272.12 188.5 272.1 188.49C272.09 188.48 272.07 188.47 272.06 188.45C272.05 188.44 272.04 188.42 272.03 188.4C272.03 188.38 272.03 188.36 272.03 188.34L277.03 158.58C277.03 158.56 277.04 158.54 277.05 158.52C277.06 158.5 277.07 158.48 277.09 158.47C277.1 158.45 277.12 158.44 277.15 158.44C277.17 158.43 277.19 158.43 277.21 158.44C277.23 158.44 277.25 158.45 277.27 158.46C277.29 158.47 277.3 158.49 277.31 158.5C277.32 158.52 277.33 158.54 277.33 158.57C277.34 158.59 277.34 158.61 277.33 158.63L272.33 188.39C272.32 188.42 272.31 188.46 272.28 188.48C272.25 188.5 272.22 188.51 272.18 188.51Z" fill="#FBFBFB" fill-opacity="1.000000" fill-rule="nonzero"/>
			<path id="Vector" d="M280.54 188.51L280.51 188.51C280.49 188.51 280.48 188.5 280.46 188.49C280.44 188.48 280.43 188.47 280.42 188.45C280.4 188.44 280.4 188.42 280.39 188.4C280.39 188.38 280.39 188.36 280.39 188.34L285.38 158.58C285.39 158.54 285.41 158.5 285.45 158.48C285.48 158.46 285.52 158.45 285.56 158.46C285.58 158.46 285.6 158.47 285.61 158.48C285.63 158.49 285.65 158.5 285.66 158.52C285.67 158.53 285.68 158.55 285.68 158.57C285.69 158.59 285.69 158.61 285.68 158.63L280.69 188.39C280.68 188.42 280.66 188.46 280.63 188.48C280.6 188.5 280.57 188.51 280.54 188.51Z" fill="#FBFBFB" fill-opacity="1.000000" fill-rule="nonzero"/>
			<path id="Vector" d="M288.89 188.51L288.87 188.51C288.85 188.51 288.83 188.5 288.81 188.49C288.79 188.48 288.78 188.47 288.77 188.45C288.76 188.44 288.75 188.42 288.74 188.4C288.74 188.38 288.74 188.36 288.74 188.34L293.74 158.58C293.74 158.56 293.75 158.54 293.76 158.52C293.76 158.5 293.78 158.48 293.79 158.47C293.81 158.45 293.83 158.44 293.85 158.44C293.87 158.43 293.9 158.43 293.92 158.44C293.94 158.44 293.96 158.45 293.98 158.46C293.99 158.47 294.01 158.49 294.02 158.5C294.03 158.52 294.04 158.54 294.04 158.57C294.04 158.59 294.04 158.61 294.04 158.63L289.04 188.39C289.03 188.42 289.01 188.46 288.99 188.48C288.96 188.5 288.93 188.51 288.89 188.51Z" fill="#FBFBFB" fill-opacity="1.000000" fill-rule="nonzero"/>
			<path id="Vector" d="M297.24 188.51L297.22 188.51C297.2 188.51 297.18 188.5 297.17 188.49C297.15 188.48 297.13 188.47 297.12 188.45C297.11 188.44 297.1 188.42 297.1 188.4C297.09 188.38 297.09 188.36 297.1 188.34L302.1 158.58C302.1 158.56 302.1 158.54 302.11 158.52C302.12 158.5 302.13 158.48 302.15 158.47C302.17 158.45 302.19 158.44 302.21 158.44C302.23 158.43 302.25 158.43 302.27 158.44C302.29 158.44 302.31 158.45 302.33 158.46C302.35 158.47 302.37 158.49 302.38 158.5C302.39 158.52 302.4 158.54 302.4 158.57C302.4 158.59 302.4 158.61 302.39 158.63L297.39 188.39C297.39 188.42 297.37 188.46 297.34 188.48C297.31 188.5 297.28 188.51 297.24 188.51Z" fill="#FBFBFB" fill-opacity="1.000000" fill-rule="nonzero"/>
			<path id="Vector" d="M305.6 188.51L305.57 188.51C305.55 188.51 305.54 188.5 305.52 188.49C305.5 188.48 305.49 188.47 305.48 188.45C305.47 188.44 305.46 188.42 305.45 188.4C305.45 188.38 305.45 188.36 305.45 188.34L310.45 158.58C310.45 158.56 310.45 158.54 310.46 158.52C310.47 158.5 310.49 158.48 310.5 158.47C310.52 158.45 310.54 158.44 310.56 158.44C310.58 158.43 310.6 158.43 310.62 158.44C310.65 158.44 310.67 158.45 310.68 158.46C310.7 158.47 310.72 158.49 310.73 158.5C310.74 158.52 310.75 158.54 310.75 158.57C310.75 158.59 310.75 158.61 310.75 158.63L305.76 188.39C305.76 188.43 305.74 188.46 305.71 188.48C305.68 188.51 305.64 188.52 305.6 188.51Z" fill="#FBFBFB" fill-opacity="1.000000" fill-rule="nonzero"/>
			<path id="Vector" d="M263.8 188.51C263.78 188.51 263.76 188.5 263.75 188.49C263.73 188.48 263.72 188.47 263.71 188.45C263.69 188.44 263.69 188.42 263.68 188.4C263.68 188.38 263.68 188.36 263.68 188.34L268.68 158.58C268.68 158.54 268.71 158.5 268.74 158.48C268.77 158.46 268.81 158.45 268.85 158.46C268.89 158.46 268.93 158.48 268.95 158.52C268.97 158.55 268.98 158.59 268.97 158.63L263.98 188.39C263.97 188.42 263.95 188.46 263.93 188.48C263.9 188.5 263.86 188.51 263.83 188.51L263.8 188.51Z" stroke="#FFFFFF" stroke-opacity="1.000000" stroke-width="0.933800" stroke-linejoin="round"/>
			<path id="Vector" d="M272.16 188.51C272.14 188.51 272.12 188.5 272.1 188.49C272.09 188.48 272.07 188.47 272.06 188.45C272.05 188.44 272.04 188.42 272.03 188.4C272.03 188.38 272.03 188.36 272.03 188.34L277.03 158.58C277.03 158.56 277.04 158.54 277.05 158.52C277.06 158.5 277.07 158.48 277.09 158.47C277.1 158.45 277.12 158.44 277.15 158.44C277.17 158.43 277.19 158.43 277.21 158.44C277.23 158.44 277.25 158.45 277.27 158.46C277.29 158.47 277.3 158.49 277.31 158.5C277.32 158.52 277.33 158.54 277.33 158.57C277.34 158.59 277.34 158.61 277.33 158.63L272.33 188.39C272.32 188.42 272.31 188.46 272.28 188.48C272.25 188.5 272.22 188.51 272.18 188.51L272.16 188.51Z" stroke="#FFFFFF" stroke-opacity="1.000000" stroke-width="0.933800" stroke-linejoin="round"/>
			<path id="Vector" d="M280.51 188.51C280.49 188.51 280.48 188.5 280.46 188.49C280.44 188.48 280.43 188.47 280.42 188.45C280.4 188.44 280.4 188.42 280.39 188.4C280.39 188.38 280.39 188.36 280.39 188.34L285.38 158.58C285.39 158.54 285.41 158.5 285.45 158.48C285.48 158.46 285.52 158.45 285.56 158.46C285.58 158.46 285.6 158.47 285.61 158.48C285.63 158.49 285.65 158.5 285.66 158.52C285.67 158.53 285.68 158.55 285.68 158.57C285.69 158.59 285.69 158.61 285.68 158.63L280.69 188.39C280.68 188.42 280.66 188.46 280.63 188.48C280.6 188.5 280.57 188.51 280.54 188.51L280.51 188.51Z" stroke="#FFFFFF" stroke-opacity="1.000000" stroke-width="0.933800" stroke-linejoin="round"/>
			<path id="Vector" d="M288.87 188.51C288.85 188.51 288.83 188.5 288.81 188.49C288.79 188.48 288.78 188.47 288.77 188.45C288.76 188.44 288.75 188.42 288.74 188.4C288.74 188.38 288.74 188.36 288.74 188.34L293.74 158.58C293.74 158.56 293.75 158.54 293.76 158.52C293.76 158.5 293.78 158.48 293.79 158.47C293.81 158.45 293.83 158.44 293.85 158.44C293.87 158.43 293.9 158.43 293.92 158.44C293.94 158.44 293.96 158.45 293.98 158.46C293.99 158.47 294.01 158.49 294.02 158.5C294.03 158.52 294.04 158.54 294.04 158.57C294.04 158.59 294.04 158.61 294.04 158.63L289.04 188.39C289.03 188.42 289.01 188.46 288.99 188.48C288.96 188.5 288.93 188.51 288.89 188.51L288.87 188.51Z" stroke="#FFFFFF" stroke-opacity="1.000000" stroke-width="0.933800" stroke-linejoin="round"/>
			<path id="Vector" d="M297.22 188.51C297.2 188.51 297.18 188.5 297.17 188.49C297.15 188.48 297.13 188.47 297.12 188.45C297.11 188.44 297.1 188.42 297.1 188.4C297.09 188.38 297.09 188.36 297.1 188.34L302.1 158.58C302.1 158.56 302.1 158.54 302.11 158.52C302.12 158.5 302.13 158.48 302.15 158.47C302.17 158.45 302.19 158.44 302.21 158.44C302.23 158.43 302.25 158.43 302.27 158.44C302.29 158.44 302.31 158.45 302.33 158.46C302.35 158.47 302.37 158.49 302.38 158.5C302.39 158.52 302.4 158.54 302.4 158.57C302.4 158.59 302.4 158.61 302.39 158.63L297.39 188.39C297.39 188.42 297.37 188.46 297.34 188.48C297.31 188.5 297.28 188.51 297.24 188.51L297.22 188.51Z" stroke="#FFFFFF" stroke-opacity="1.000000" stroke-width="0.933800" stroke-linejoin="round"/>
			<path id="Vector" d="M305.57 188.51C305.55 188.51 305.54 188.5 305.52 188.49C305.5 188.48 305.49 188.47 305.48 188.45C305.47 188.44 305.46 188.42 305.45 188.4C305.45 188.38 305.45 188.36 305.45 188.34L310.45 158.58C310.45 158.56 310.45 158.54 310.46 158.52C310.47 158.5 310.49 158.48 310.5 158.47C310.52 158.45 310.54 158.44 310.56 158.44C310.58 158.43 310.6 158.43 310.62 158.44C310.65 158.44 310.67 158.45 310.68 158.46C310.7 158.47 310.72 158.49 310.73 158.5C310.74 158.52 310.75 158.54 310.75 158.57C310.75 158.59 310.75 158.61 310.75 158.63L305.76 188.39C305.76 188.43 305.74 188.46 305.71 188.48C305.68 188.51 305.64 188.52 305.6 188.51L305.57 188.51Z" stroke="#FFFFFF" stroke-opacity="1.000000" stroke-width="0.933800" stroke-linejoin="round"/>
			<path id="Vector" d="M315.79 165.65L261.32 165.65C261.3 165.66 261.27 165.65 261.25 165.65C261.23 165.64 261.21 165.63 261.2 165.62C261.18 165.6 261.17 165.59 261.16 165.57C261.15 165.55 261.14 165.53 261.14 165.5C261.14 165.48 261.15 165.46 261.16 165.44C261.17 165.42 261.18 165.4 261.2 165.39C261.21 165.38 261.23 165.36 261.25 165.36C261.27 165.35 261.3 165.35 261.32 165.35L315.79 165.35C315.81 165.35 315.83 165.35 315.85 165.36C315.87 165.36 315.89 165.38 315.91 165.39C315.93 165.4 315.94 165.42 315.95 165.44C315.96 165.46 315.96 165.48 315.96 165.5C315.96 165.53 315.96 165.55 315.95 165.57C315.94 165.59 315.93 165.6 315.91 165.62C315.89 165.63 315.87 165.64 315.85 165.65C315.83 165.65 315.81 165.66 315.79 165.65Z" fill="#FBFBFB" fill-opacity="1.000000" fill-rule="nonzero"/>
			<path id="Vector" d="M314.45 173.63L259.98 173.63C259.96 173.64 259.93 173.63 259.91 173.63C259.89 173.62 259.87 173.61 259.86 173.6C259.84 173.58 259.83 173.57 259.82 173.55C259.81 173.53 259.8 173.51 259.8 173.48C259.8 173.46 259.81 173.44 259.82 173.42C259.83 173.4 259.84 173.38 259.86 173.37C259.87 173.35 259.89 173.34 259.91 173.34C259.93 173.33 259.96 173.33 259.98 173.33L314.45 173.33C314.47 173.33 314.49 173.33 314.51 173.34C314.53 173.34 314.55 173.35 314.57 173.37C314.59 173.38 314.6 173.4 314.61 173.42C314.62 173.44 314.62 173.46 314.62 173.48C314.62 173.51 314.62 173.53 314.61 173.55C314.6 173.57 314.59 173.58 314.57 173.6C314.55 173.61 314.53 173.62 314.51 173.63C314.49 173.63 314.47 173.64 314.45 173.63Z" fill="#FBFBFB" fill-opacity="1.000000" fill-rule="nonzero"/>
			<path id="Vector" d="M313.11 181.62L258.64 181.62C258.6 181.62 258.56 181.6 258.53 181.57C258.5 181.54 258.49 181.5 258.49 181.46C258.49 181.42 258.5 181.39 258.53 181.36C258.56 181.33 258.6 181.31 258.64 181.31L313.11 181.31C313.15 181.31 313.19 181.33 313.22 181.36C313.24 181.39 313.26 181.42 313.26 181.46C313.26 181.5 313.24 181.54 313.22 181.57C313.19 181.6 313.15 181.62 313.11 181.62Z" fill="#FBFBFB" fill-opacity="1.000000" fill-rule="nonzero"/>
			<path id="Vector" d="M261.32 165.5L315.79 165.5" stroke="#FFFFFF" stroke-opacity="1.000000" stroke-width="0.933800" stroke-linejoin="round" stroke-linecap="round"/>
			<path id="Vector" d="M261.32 165.65C261.3 165.66 261.27 165.65 261.25 165.65C261.23 165.64 261.21 165.63 261.2 165.62C261.18 165.6 261.17 165.59 261.16 165.57C261.15 165.55 261.14 165.53 261.14 165.5C261.14 165.48 261.15 165.46 261.16 165.44C261.17 165.42 261.18 165.4 261.2 165.39C261.21 165.38 261.23 165.36 261.25 165.36C261.27 165.35 261.3 165.35 261.32 165.35L315.79 165.35C315.81 165.35 315.83 165.35 315.85 165.36C315.87 165.36 315.89 165.38 315.91 165.39C315.93 165.4 315.94 165.42 315.95 165.44C315.96 165.46 315.96 165.48 315.96 165.5C315.96 165.53 315.96 165.55 315.95 165.57C315.94 165.59 315.93 165.6 315.91 165.62C315.89 165.63 315.87 165.64 315.85 165.65C315.83 165.65 315.81 165.66 315.79 165.65L261.32 165.65Z" stroke="#FFFFFF" stroke-opacity="1.000000" stroke-width="0.933800" stroke-linejoin="round"/>
			<path id="Vector" d="M259.98 173.49L314.45 173.49" stroke="#FFFFFF" stroke-opacity="1.000000" stroke-width="0.933800" stroke-linejoin="round" stroke-linecap="round"/>
			<path id="Vector" d="M259.98 173.63C259.96 173.64 259.93 173.63 259.91 173.63C259.89 173.62 259.87 173.61 259.86 173.6C259.84 173.58 259.83 173.57 259.82 173.55C259.81 173.53 259.8 173.51 259.8 173.48C259.8 173.46 259.81 173.44 259.82 173.42C259.83 173.4 259.84 173.38 259.86 173.37C259.87 173.35 259.89 173.34 259.91 173.34C259.93 173.33 259.96 173.33 259.98 173.33L314.45 173.33C314.47 173.33 314.49 173.33 314.51 173.34C314.53 173.34 314.55 173.35 314.57 173.37C314.59 173.38 314.6 173.4 314.61 173.42C314.62 173.44 314.62 173.46 314.62 173.48C314.62 173.51 314.62 173.53 314.61 173.55C314.6 173.57 314.59 173.58 314.57 173.6C314.55 173.61 314.53 173.62 314.51 173.63C314.49 173.63 314.47 173.64 314.45 173.63L259.98 173.63Z" stroke="#FFFFFF" stroke-opacity="1.000000" stroke-width="0.933800" stroke-linejoin="round"/>
			<path id="Vector" d="M258.64 181.46L313.11 181.46" stroke="#FFFFFF" stroke-opacity="1.000000" stroke-width="0.933800" stroke-linejoin="round" stroke-linecap="round"/>
			<path id="Vector" d="M258.64 181.62C258.6 181.62 258.56 181.6 258.53 181.57C258.5 181.54 258.49 181.5 258.49 181.46C258.49 181.42 258.5 181.39 258.53 181.36C258.56 181.33 258.6 181.31 258.64 181.31L313.11 181.31C313.15 181.31 313.19 181.33 313.22 181.36C313.24 181.39 313.26 181.42 313.26 181.46C313.26 181.5 313.24 181.54 313.22 181.57C313.19 181.6 313.15 181.62 313.11 181.62L258.64 181.62Z" stroke="#FFFFFF" stroke-opacity="1.000000" stroke-width="0.933800" stroke-linejoin="round"/>
			<path id="Vector" d="M276.84 171.97C276.82 171.97 276.8 171.96 276.78 171.96C276.76 171.95 276.74 171.93 276.73 171.92C276.7 171.88 276.69 171.85 276.69 171.81C276.7 171.77 276.72 171.73 276.75 171.71L282.57 166.88C282.6 166.86 282.64 166.84 282.68 166.85C282.72 166.85 282.76 166.87 282.78 166.9C282.81 166.93 282.82 166.97 282.81 167.01C282.81 167.05 282.79 167.09 282.76 167.11L276.94 171.94C276.91 171.96 276.88 171.97 276.84 171.97Z" fill="url(#paint_linear_3_602_0)" fill-opacity="1.000000" fill-rule="nonzero"/>
			<path id="Vector" d="M281.85 171.97C281.83 171.97 281.81 171.96 281.79 171.96C281.77 171.95 281.76 171.93 281.74 171.92L277.54 167.09C277.51 167.07 277.49 167.03 277.49 166.99C277.49 166.95 277.51 166.91 277.54 166.88C277.55 166.87 277.57 166.86 277.59 166.85C277.61 166.85 277.63 166.85 277.65 166.85C277.67 166.85 277.69 166.85 277.7 166.86C277.72 166.87 277.74 166.89 277.75 166.9L281.95 171.72C281.98 171.75 282 171.79 282 171.83C282 171.87 281.98 171.9 281.95 171.93C281.94 171.94 281.92 171.95 281.91 171.96C281.89 171.97 281.87 171.97 281.85 171.97Z" fill="url(#paint_linear_3_603_0)" fill-opacity="1.000000" fill-rule="nonzero"/>
			<path id="Vector" d="M300.71 180.39C300.69 180.39 300.67 180.39 300.65 180.38C300.63 180.37 300.61 180.36 300.6 180.34C300.58 180.32 300.57 180.31 300.57 180.29C300.56 180.27 300.56 180.25 300.56 180.23C300.57 180.21 300.57 180.19 300.58 180.17C300.59 180.16 300.6 180.14 300.62 180.13L306.43 175.31C306.44 175.29 306.46 175.28 306.48 175.27C306.5 175.27 306.52 175.26 306.54 175.26C306.56 175.26 306.58 175.27 306.6 175.28C306.62 175.29 306.64 175.3 306.65 175.32C306.66 175.33 306.67 175.35 306.68 175.37C306.69 175.39 306.69 175.41 306.68 175.43C306.68 175.45 306.67 175.47 306.66 175.49C306.65 175.51 306.64 175.53 306.62 175.54L300.82 180.36C300.79 180.38 300.75 180.4 300.71 180.39Z" fill="url(#paint_linear_3_604_0)" fill-opacity="1.000000" fill-rule="nonzero"/>
			<path id="Vector" d="M305.73 180.39C305.7 180.39 305.68 180.39 305.66 180.38C305.64 180.37 305.63 180.36 305.61 180.34L301.41 175.52C301.38 175.49 301.37 175.45 301.37 175.41C301.37 175.37 301.38 175.34 301.41 175.31C301.44 175.28 301.48 175.27 301.52 175.27C301.56 175.28 301.6 175.29 301.62 175.32L305.82 180.14C305.85 180.17 305.87 180.21 305.87 180.25C305.87 180.29 305.85 180.33 305.82 180.36C305.8 180.38 305.76 180.39 305.73 180.39Z" fill="url(#paint_linear_3_605_0)" fill-opacity="1.000000" fill-rule="nonzero"/>
			<path id="Vector" d="M307.04 193.9L315.14 187.6L310.46 187.6C309.8 187.63 309.17 187.87 308.67 188.3C308.17 188.72 307.83 189.3 307.71 189.95L307.04 193.9Z" fill="url(#paint_linear_3_606_0)" fill-opacity="0.620000" fill-rule="nonzero"/>
			<path id="Vector" d="M307.04 194.06C307.02 194.06 306.99 194.05 306.97 194.04C306.94 194.02 306.92 194 306.91 193.97C306.9 193.94 306.89 193.91 306.9 193.88L307.56 189.92C307.69 189.24 308.04 188.63 308.57 188.18C309.1 187.74 309.76 187.48 310.45 187.45L315.13 187.45C315.17 187.45 315.2 187.46 315.22 187.48C315.25 187.5 315.27 187.53 315.28 187.56C315.29 187.59 315.29 187.62 315.28 187.65C315.27 187.68 315.25 187.7 315.23 187.72L307.13 194.02C307.11 194.04 307.08 194.05 307.04 194.06ZM310.46 187.75C309.84 187.78 309.24 188.01 308.77 188.41C308.3 188.81 307.98 189.36 307.86 189.97L307.26 193.55L314.71 187.75L310.46 187.75Z" fill="#FBFBFB" fill-opacity="1.000000" fill-rule="nonzero"/>
			<path id="Vector" d="M303.05 152.69C302.93 152.69 302.82 152.66 302.72 152.6C302.16 152.28 301.69 151.83 301.34 151.3C300.99 150.76 300.77 150.15 300.7 149.51C300.62 148.87 300.7 148.23 300.93 147.63C301.15 147.03 301.51 146.49 301.99 146.05C302.46 145.61 303.03 145.29 303.64 145.11C304.26 144.94 304.91 144.9 305.55 145.02C306.18 145.14 306.78 145.4 307.29 145.79C307.8 146.18 308.22 146.68 308.5 147.25C308.58 147.41 308.59 147.59 308.53 147.76C308.48 147.92 308.35 148.06 308.2 148.13C308.04 148.21 307.86 148.22 307.69 148.17C307.53 148.11 307.39 147.99 307.31 147.83C307.04 147.26 306.57 146.81 306 146.54C305.43 146.26 304.78 146.19 304.16 146.34C303.54 146.48 302.99 146.82 302.6 147.32C302.2 147.81 301.99 148.42 301.99 149.05C301.99 149.54 302.12 150.02 302.36 150.45C302.61 150.87 302.96 151.22 303.38 151.47C303.51 151.54 303.6 151.66 303.66 151.79C303.71 151.92 303.72 152.07 303.68 152.21C303.65 152.34 303.56 152.47 303.45 152.55C303.34 152.64 303.2 152.69 303.05 152.69L303.05 152.69Z" fill="#FBFBFB" fill-opacity="1.000000" fill-rule="nonzero"/>
			<path id="Vector" d="M288.2 152.69C288.09 152.69 287.97 152.66 287.87 152.6C287.09 152.15 286.48 151.45 286.13 150.62C285.78 149.78 285.73 148.86 285.96 147.99C286.2 147.11 286.72 146.34 287.44 145.79C288.16 145.25 289.04 144.95 289.95 144.95C290.72 144.95 291.48 145.16 292.13 145.57C292.79 145.97 293.32 146.56 293.65 147.25C293.73 147.4 293.74 147.59 293.69 147.75C293.63 147.92 293.51 148.05 293.35 148.13C293.19 148.2 293.01 148.22 292.85 148.16C292.68 148.1 292.54 147.98 292.47 147.83C292.19 147.26 291.73 146.8 291.15 146.53C290.58 146.26 289.93 146.19 289.32 146.33C288.7 146.47 288.15 146.82 287.75 147.31C287.35 147.8 287.14 148.42 287.14 149.05C287.14 149.54 287.27 150.02 287.52 150.44C287.76 150.87 288.11 151.22 288.54 151.46C288.66 151.54 288.76 151.65 288.81 151.78C288.87 151.91 288.88 152.06 288.84 152.2C288.8 152.34 288.72 152.46 288.61 152.55C288.49 152.64 288.35 152.68 288.21 152.69L288.2 152.69Z" fill="#FBFBFB" fill-opacity="1.000000" fill-rule="nonzero"/>
			<path id="Vector" d="M273.36 152.69C273.24 152.69 273.13 152.66 273.03 152.6C272.47 152.28 271.99 151.83 271.64 151.3C271.29 150.76 271.07 150.15 271 149.51C270.93 148.87 271 148.23 271.23 147.63C271.45 147.03 271.82 146.48 272.29 146.05C272.76 145.61 273.33 145.29 273.95 145.11C274.56 144.93 275.22 144.9 275.85 145.02C276.48 145.13 277.08 145.4 277.59 145.79C278.11 146.17 278.52 146.68 278.8 147.25C278.85 147.33 278.87 147.42 278.88 147.5C278.89 147.59 278.88 147.68 278.85 147.76C278.82 147.85 278.78 147.92 278.72 147.99C278.66 148.06 278.59 148.11 278.51 148.15C278.43 148.19 278.35 148.21 278.26 148.22C278.17 148.22 278.08 148.21 278 148.18C277.91 148.15 277.84 148.1 277.77 148.04C277.71 147.98 277.66 147.91 277.62 147.83C277.34 147.26 276.88 146.8 276.31 146.53C275.73 146.26 275.08 146.19 274.47 146.33C273.85 146.47 273.29 146.82 272.9 147.31C272.5 147.81 272.29 148.42 272.29 149.05C272.29 149.54 272.42 150.02 272.67 150.45C272.91 150.87 273.26 151.22 273.69 151.47C273.81 151.54 273.91 151.66 273.96 151.79C274.02 151.92 274.03 152.07 273.99 152.21C273.95 152.34 273.87 152.47 273.76 152.55C273.64 152.64 273.5 152.69 273.36 152.69L273.36 152.69Z" fill="#FBFBFB" fill-opacity="1.000000" fill-rule="nonzero"/>
			<path id="Vector" d="M272.1 146.97C272.08 146.97 272.05 146.96 272.02 146.95C271.98 146.92 271.96 146.89 271.94 146.84C271.93 146.8 271.94 146.76 271.96 146.72C272.28 146.24 272.71 145.86 273.23 145.61C273.25 145.59 273.27 145.59 273.29 145.58C273.32 145.58 273.34 145.58 273.36 145.59C273.39 145.59 273.41 145.61 273.43 145.62C273.44 145.64 273.46 145.65 273.47 145.67C273.48 145.7 273.48 145.72 273.48 145.74C273.48 145.77 273.48 145.79 273.47 145.81C273.46 145.83 273.45 145.85 273.43 145.87C273.41 145.88 273.39 145.89 273.37 145.9C272.92 146.13 272.53 146.47 272.25 146.89C272.23 146.91 272.21 146.93 272.19 146.94C272.16 146.96 272.13 146.97 272.1 146.97Z" fill="url(#paint_linear_3_611_0)" fill-opacity="0.620000" fill-rule="nonzero"/>
			<path id="Vector" d="M287.14 146.97C287.11 146.96 287.09 146.96 287.06 146.94C287.04 146.93 287.01 146.91 287 146.88C286.99 146.86 286.98 146.83 286.98 146.8C286.98 146.77 286.99 146.74 287 146.72C287.32 146.24 287.76 145.85 288.28 145.61C288.31 145.59 288.36 145.59 288.4 145.6C288.44 145.62 288.47 145.64 288.49 145.68C288.5 145.7 288.51 145.72 288.51 145.75C288.51 145.77 288.51 145.79 288.5 145.81C288.49 145.83 288.48 145.85 288.47 145.86C288.45 145.88 288.43 145.89 288.41 145.9C287.96 146.13 287.57 146.47 287.29 146.89C287.28 146.91 287.25 146.93 287.23 146.95C287.2 146.96 287.17 146.97 287.14 146.97Z" fill="url(#paint_linear_3_612_0)" fill-opacity="0.620000" fill-rule="nonzero"/>
			<path id="Vector" d="M301.83 146.97C301.8 146.96 301.78 146.96 301.75 146.95C301.71 146.92 301.68 146.89 301.67 146.84C301.66 146.8 301.67 146.76 301.69 146.72C302 146.24 302.44 145.86 302.96 145.61C302.98 145.6 303 145.59 303.02 145.59C303.04 145.59 303.06 145.59 303.08 145.6C303.1 145.61 303.12 145.62 303.14 145.63C303.16 145.65 303.17 145.66 303.18 145.68C303.19 145.7 303.19 145.72 303.19 145.75C303.2 145.77 303.19 145.79 303.18 145.81C303.18 145.83 303.17 145.85 303.15 145.86C303.14 145.88 303.12 145.89 303.1 145.9C302.65 146.13 302.26 146.47 301.98 146.89C301.96 146.91 301.94 146.93 301.91 146.94C301.89 146.96 301.86 146.97 301.83 146.97Z" fill="url(#paint_linear_3_613_0)" fill-opacity="0.620000" fill-rule="nonzero"/>
			<path id="Vector" d="M228.87 152.06L236.47 151.67L238.39 189.17L230.79 189.56L228.87 152.06Z" fill="url(#paint_linear_3_614_0)" fill-opacity="0.620000" fill-rule="evenodd"/>
			<path id="Vector" d="M230.8 189.71C230.76 189.71 230.72 189.69 230.69 189.67C230.67 189.64 230.65 189.6 230.65 189.56L228.72 152.06C228.72 152.04 228.72 152.02 228.72 152C228.73 151.99 228.74 151.97 228.75 151.95C228.78 151.92 228.82 151.9 228.86 151.9L236.45 151.51C236.49 151.51 236.53 151.53 236.56 151.55C236.59 151.58 236.61 151.62 236.61 151.66L238.55 189.17C238.55 189.19 238.55 189.21 238.54 189.23C238.54 189.25 238.53 189.26 238.51 189.28C238.5 189.29 238.48 189.31 238.46 189.31C238.45 189.32 238.43 189.33 238.41 189.33L230.82 189.72L230.8 189.71ZM229.03 152.2L230.94 189.4L238.24 189.02L236.32 151.83L229.03 152.2Z" fill="#FFFFFF" fill-opacity="1.000000" fill-rule="nonzero"/>
			<path id="Vector" d="M230.83 189.5L229.81 189.55L227.92 152L228.94 151.95L230.83 189.5Z" fill="url(#paint_linear_3_616_0)" fill-opacity="0.620000" fill-rule="evenodd"/>
			<path id="Vector" d="M229.79 189.76C229.75 189.76 229.71 189.74 229.68 189.72C229.66 189.69 229.64 189.66 229.63 189.62L227.7 152.12C227.7 152.1 227.7 152.08 227.71 152.06C227.72 152.04 227.73 152.02 227.74 152C227.77 151.98 227.81 151.96 227.85 151.96L228.86 151.9C228.9 151.9 228.94 151.92 228.97 151.94C229 151.97 229.02 152.01 229.02 152.05L230.95 189.55C230.95 189.59 230.94 189.63 230.91 189.66C230.88 189.69 230.85 189.7 230.81 189.71L229.79 189.76L229.79 189.76ZM228.01 152.25L229.93 189.45L230.64 189.41L228.72 152.22L228.01 152.25Z" fill="#FFFFFF" fill-opacity="1.000000" fill-rule="nonzero"/>
			<path id="Vector" d="" fill="url(#paint_linear_3_618_0)" fill-opacity="0.620000" fill-rule="nonzero"/>
			<path id="Vector" d="M229.21 154.21C229.17 154.21 229.13 154.2 229.1 154.17C229.07 154.14 229.05 154.1 229.05 154.06C229.05 154.02 229.07 153.98 229.1 153.95C229.13 153.93 229.17 153.91 229.21 153.91L230.64 153.83C230.66 153.83 230.68 153.84 230.7 153.84C230.72 153.85 230.73 153.86 230.75 153.87C230.76 153.89 230.77 153.9 230.78 153.92C230.79 153.94 230.8 153.96 230.8 153.98C230.8 154 230.79 154.02 230.79 154.04C230.78 154.06 230.77 154.07 230.76 154.09C230.75 154.1 230.73 154.11 230.71 154.12C230.69 154.13 230.67 154.14 230.65 154.14L229.22 154.21L229.21 154.21Z" fill="#FFFFFF" fill-opacity="1.000000" fill-rule="nonzero"/>
			<path id="Vector" d="" fill="url(#paint_linear_3_620_0)" fill-opacity="0.620000" fill-rule="nonzero"/>
			<path id="Vector" d="M229.32 156.73C229.28 156.73 229.24 156.72 229.22 156.69C229.19 156.66 229.17 156.63 229.17 156.59C229.17 156.57 229.17 156.55 229.18 156.53C229.18 156.51 229.19 156.49 229.21 156.48C229.22 156.46 229.24 156.45 229.26 156.44C229.27 156.43 229.29 156.43 229.31 156.43L230.8 156.35C230.84 156.35 230.88 156.36 230.91 156.39C230.94 156.42 230.95 156.45 230.96 156.49C230.96 156.51 230.96 156.53 230.95 156.55C230.94 156.57 230.93 156.59 230.92 156.6C230.9 156.62 230.89 156.63 230.87 156.64C230.85 156.65 230.83 156.65 230.81 156.65L229.33 156.73L229.32 156.73Z" fill="#FFFFFF" fill-opacity="1.000000" fill-rule="nonzero"/>
			<path id="Vector" d="" fill="url(#paint_linear_3_622_0)" fill-opacity="0.620000" fill-rule="nonzero"/>
			<path id="Vector" d="M229.45 159.25C229.41 159.24 229.38 159.23 229.35 159.2C229.33 159.17 229.32 159.13 229.32 159.1C229.32 159.06 229.33 159.02 229.35 159C229.38 158.97 229.41 158.95 229.45 158.94L231.94 158.82C231.98 158.82 232.02 158.83 232.05 158.86C232.08 158.88 232.1 158.92 232.1 158.96C232.1 159 232.09 159.04 232.06 159.07C232.04 159.1 232 159.12 231.96 159.12L229.47 159.25L229.45 159.25Z" fill="#FFFFFF" fill-opacity="1.000000" fill-rule="nonzero"/>
			<path id="Vector" d="" fill="url(#paint_linear_3_624_0)" fill-opacity="0.620000" fill-rule="nonzero"/>
			<path id="Vector" d="M229.58 161.77C229.54 161.77 229.51 161.75 229.48 161.73C229.45 161.7 229.43 161.66 229.43 161.62C229.43 161.6 229.43 161.58 229.44 161.57C229.44 161.55 229.45 161.53 229.47 161.51C229.48 161.5 229.5 161.49 229.51 161.48C229.53 161.47 229.55 161.46 229.57 161.46L231 161.39C231.02 161.39 231.04 161.39 231.06 161.4C231.08 161.41 231.1 161.42 231.11 161.43C231.13 161.44 231.14 161.46 231.15 161.48C231.16 161.5 231.16 161.52 231.16 161.53C231.16 161.56 231.16 161.57 231.15 161.59C231.15 161.61 231.14 161.63 231.12 161.64C231.11 161.66 231.1 161.67 231.08 161.68C231.06 161.69 231.04 161.69 231.02 161.69L229.59 161.77L229.58 161.77Z" fill="#FFFFFF" fill-opacity="1.000000" fill-rule="nonzero"/>
			<path id="Vector" d="" fill="url(#paint_linear_3_626_0)" fill-opacity="0.620000" fill-rule="nonzero"/>
			<path id="Vector" d="M229.71 164.28C229.67 164.28 229.63 164.27 229.61 164.24C229.58 164.22 229.56 164.18 229.56 164.14C229.56 164.1 229.57 164.06 229.6 164.03C229.63 164 229.66 163.98 229.7 163.98L231.22 163.91C231.26 163.91 231.3 163.92 231.33 163.95C231.35 163.98 231.37 164.02 231.37 164.06C231.37 164.1 231.35 164.14 231.33 164.16C231.3 164.19 231.26 164.21 231.22 164.21L229.7 164.28L229.71 164.28Z" fill="#FFFFFF" fill-opacity="1.000000" fill-rule="nonzero"/>
			<path id="Vector" d="" fill="url(#paint_linear_3_628_0)" fill-opacity="0.620000" fill-rule="nonzero"/>
			<path id="Vector" d="M229.84 166.8C229.8 166.8 229.76 166.79 229.74 166.76C229.71 166.74 229.69 166.7 229.69 166.66C229.69 166.62 229.7 166.58 229.73 166.55C229.75 166.52 229.79 166.5 229.83 166.5L232.33 166.38C232.35 166.37 232.37 166.38 232.39 166.38C232.4 166.39 232.42 166.4 232.44 166.41C232.45 166.43 232.46 166.44 232.47 166.46C232.48 166.48 232.48 166.5 232.49 166.52C232.49 166.56 232.47 166.6 232.45 166.63C232.42 166.66 232.38 166.68 232.34 166.68L229.85 166.8L229.84 166.8Z" fill="#FFFFFF" fill-opacity="1.000000" fill-rule="nonzero"/>
			<path id="Vector" d="M243.29 161.28L246.45 161.56L243.75 192.36L240.59 192.08L243.29 161.28Z" fill="url(#paint_linear_3_630_0)" fill-opacity="0.620000" fill-rule="evenodd"/>
			<path id="Vector" d="M243.74 192.51L240.58 192.24C240.56 192.24 240.55 192.24 240.53 192.23C240.51 192.22 240.49 192.2 240.48 192.19C240.46 192.16 240.44 192.12 240.45 192.08L243.13 161.26C243.14 161.22 243.16 161.18 243.19 161.16C243.22 161.13 243.26 161.12 243.3 161.12L246.46 161.39C246.48 161.39 246.5 161.4 246.52 161.41C246.54 161.42 246.55 161.43 246.56 161.45C246.58 161.46 246.59 161.48 246.59 161.5C246.6 161.52 246.6 161.54 246.6 161.56L243.89 192.36C243.89 192.4 243.88 192.44 243.85 192.47C243.82 192.5 243.78 192.51 243.74 192.51ZM240.76 191.95L243.61 192.2L246.29 161.7L243.43 161.45L240.76 191.95Z" fill="#FFFFFF" fill-opacity="1.000000" fill-rule="nonzero"/>
			<path id="Vector" d="M246.45 161.56C245.97 161.87 245.41 162.02 244.84 161.98C244.54 162 244.25 161.94 243.98 161.82C243.71 161.7 243.47 161.51 243.29 161.28L244.47 158.27L245.34 156.08L245.8 158.38L246.45 161.56Z" fill="url(#paint_linear_3_632_0)" fill-opacity="0.620000" fill-rule="nonzero"/>
			<path id="Vector" d="M244.84 162.14C244.52 162.15 244.2 162.09 243.9 161.96C243.61 161.82 243.36 161.62 243.16 161.36C243.15 161.34 243.14 161.32 243.14 161.3C243.13 161.27 243.14 161.25 243.14 161.23L245.19 156.02C245.21 155.99 245.23 155.96 245.25 155.95C245.28 155.93 245.32 155.92 245.35 155.93C245.38 155.93 245.41 155.94 245.44 155.97C245.46 155.99 245.48 156.02 245.48 156.05L246.6 161.53C246.6 161.55 246.6 161.58 246.59 161.61C246.58 161.63 246.56 161.66 246.54 161.67C246.52 161.69 245.98 162.14 244.84 162.14ZM243.46 161.26C243.63 161.45 243.85 161.6 244.09 161.69C244.32 161.79 244.58 161.84 244.84 161.83C245.34 161.85 245.84 161.74 246.28 161.5L245.29 156.62L243.46 161.26Z" fill="#FFFFFF" fill-opacity="1.000000" fill-rule="nonzero"/>
			<path id="Vector" d="M245.8 158.39L244.47 158.27L245.34 156.08L245.8 158.39Z" fill="url(#paint_linear_3_634_0)" fill-opacity="1.000000" fill-rule="nonzero"/>
			<path id="Vector" d="M245.8 158.54L244.48 158.42C244.46 158.42 244.44 158.41 244.42 158.4C244.4 158.39 244.38 158.37 244.37 158.35C244.36 158.33 244.36 158.31 244.36 158.28C244.36 158.26 244.36 158.24 244.37 158.22L245.23 156.02C245.25 155.99 245.27 155.96 245.29 155.95C245.32 155.93 245.36 155.92 245.39 155.93C245.42 155.93 245.45 155.94 245.47 155.97C245.5 155.99 245.51 156.02 245.52 156.05L245.99 158.35C246 158.37 246 158.39 245.99 158.41C245.99 158.43 245.98 158.45 245.96 158.47C245.95 158.49 245.93 158.5 245.91 158.51C245.89 158.52 245.87 158.53 245.84 158.53L245.8 158.54ZM244.69 158.14L245.62 158.22L245.29 156.61L244.69 158.14Z" fill="url(#paint_linear_3_635_0)" fill-opacity="1.000000" fill-rule="nonzero"/>
			<path id="Vector" d="M239.78 160.57L242.26 160.79L240.14 185.03L237.65 184.82L239.78 160.57Z" fill="url(#paint_linear_3_636_0)" fill-opacity="0.620000" fill-rule="evenodd"/>
			<path id="Vector" d="M240.14 185.18L237.65 184.97C237.63 184.96 237.61 184.96 237.59 184.95C237.58 184.94 237.56 184.93 237.55 184.91C237.53 184.9 237.53 184.88 237.52 184.86C237.51 184.84 237.51 184.82 237.51 184.8L239.64 160.56C239.64 160.52 239.66 160.48 239.69 160.46C239.73 160.43 239.77 160.42 239.81 160.42L242.29 160.64C242.33 160.64 242.37 160.66 242.4 160.69C242.41 160.71 242.42 160.72 242.43 160.74C242.43 160.76 242.43 160.78 242.43 160.8L240.3 185.04C240.3 185.06 240.3 185.08 240.29 185.1C240.28 185.12 240.26 185.13 240.25 185.15C240.23 185.16 240.22 185.17 240.2 185.18C240.18 185.18 240.16 185.18 240.14 185.18ZM237.83 184.68L240.01 184.87L242.1 160.93L239.92 160.74L237.83 184.68Z" fill="#FFFFFF" fill-opacity="1.000000" fill-rule="nonzero"/>
			<path id="Vector" d="M242.27 160.79C242.12 160.96 241.93 161.09 241.72 161.18C241.51 161.27 241.28 161.3 241.05 161.28C240.8 161.26 240.55 161.19 240.33 161.06C240.11 160.94 239.92 160.77 239.77 160.57L240.7 158.2L241.36 156.47L241.76 158.3L242.27 160.79Z" fill="url(#paint_linear_3_638_0)" fill-opacity="0.620000" fill-rule="nonzero"/>
			<path id="Vector" d="M241.15 161.44L241.05 161.44C240.77 161.41 240.51 161.33 240.27 161.2C240.03 161.06 239.82 160.88 239.66 160.66C239.64 160.64 239.63 160.62 239.63 160.59C239.63 160.57 239.63 160.54 239.64 160.52L241.25 156.42C241.26 156.39 241.29 156.36 241.32 156.35C241.35 156.33 241.38 156.32 241.42 156.33C241.45 156.33 241.48 156.35 241.5 156.37C241.53 156.39 241.55 156.42 241.55 156.45L242.41 160.76C242.41 160.78 242.41 160.8 242.41 160.82C242.4 160.84 242.39 160.86 242.38 160.88C242.23 161.06 242.04 161.2 241.83 161.29C241.61 161.39 241.38 161.44 241.15 161.44ZM239.95 160.54C240.23 160.88 240.63 161.09 241.06 161.13C241.25 161.15 241.45 161.12 241.63 161.06C241.81 160.99 241.97 160.88 242.1 160.74L241.34 157.01L239.95 160.54Z" fill="#FFFFFF" fill-opacity="1.000000" fill-rule="nonzero"/>
			<path id="Vector" d="M241.76 158.29L240.71 158.2L241.39 156.47L241.76 158.29Z" fill="url(#paint_linear_3_640_0)" fill-opacity="0.620000" fill-rule="nonzero"/>
			<path id="Vector" d="M241.75 158.45L240.7 158.35C240.68 158.35 240.65 158.35 240.63 158.33C240.61 158.32 240.6 158.3 240.58 158.28C240.57 158.26 240.57 158.24 240.57 158.21C240.57 158.19 240.57 158.17 240.58 158.15L241.26 156.42C241.28 156.39 241.3 156.37 241.32 156.35C241.35 156.33 241.38 156.33 241.42 156.33C241.45 156.33 241.48 156.35 241.51 156.37C241.53 156.39 241.55 156.42 241.55 156.45L241.92 158.27C241.93 158.29 241.93 158.32 241.92 158.34C241.91 158.36 241.9 158.39 241.89 158.4C241.87 158.42 241.85 158.43 241.82 158.44C241.8 158.45 241.77 158.45 241.75 158.45ZM240.91 158.07L241.57 158.13L241.35 157.01L240.91 158.07Z" fill="#FFFFFF" fill-opacity="1.000000" fill-rule="nonzero"/>
			<path id="Vector" d="" fill="url(#paint_linear_3_642_0)" fill-opacity="0.620000" fill-rule="nonzero"/>
			<path id="Vector" d="M238.91 185.1C238.89 185.1 238.87 185.1 238.85 185.09C238.83 185.08 238.82 185.07 238.8 185.05C238.79 185.04 238.78 185.02 238.77 185C238.77 184.98 238.77 184.96 238.77 184.94L240.91 161.27C240.92 161.23 240.94 161.2 240.97 161.17C241 161.15 241.04 161.13 241.08 161.13C241.12 161.14 241.16 161.16 241.18 161.19C241.21 161.22 241.22 161.26 241.22 161.3L239.07 184.97C239.07 184.99 239.07 185.01 239.06 185.03C239.05 185.04 239.03 185.06 239.02 185.07C239 185.08 238.99 185.09 238.97 185.1C238.95 185.1 238.93 185.11 238.91 185.1Z" fill="#FFFFFF" fill-opacity="1.000000" fill-rule="nonzero"/>
			<path id="Vector" d="M235.27 167.19L237.9 167.29L237.54 176.54L234.9 176.44L235.27 167.19Z" fill="url(#paint_linear_3_644_0)" fill-opacity="0.620000" fill-rule="evenodd"/>
			<path id="Vector" d="M237.54 176.69L234.9 176.59C234.88 176.59 234.86 176.58 234.84 176.57C234.82 176.57 234.81 176.55 234.79 176.54C234.78 176.52 234.77 176.51 234.76 176.49C234.75 176.47 234.75 176.45 234.75 176.43L235.12 167.17C235.12 167.13 235.14 167.09 235.16 167.06C235.19 167.04 235.23 167.02 235.27 167.02L237.91 167.12C237.95 167.13 237.99 167.14 238.02 167.17C238.04 167.2 238.06 167.24 238.06 167.28L237.69 176.53C237.69 176.55 237.69 176.57 237.68 176.59C237.68 176.61 237.67 176.63 237.65 176.64C237.64 176.66 237.62 176.67 237.6 176.68C237.58 176.69 237.56 176.69 237.54 176.69ZM235.06 176.29L237.39 176.38L237.75 167.44L235.41 167.34L235.06 176.29Z" fill="#FFFFFF" fill-opacity="1.000000" fill-rule="nonzero"/>
			<path id="Vector" d="M235.1 157.91L238.8 158.06L238.43 167.31L234.74 167.16L235.1 157.91Z" fill="url(#paint_linear_3_646_0)" fill-opacity="0.620000" fill-rule="evenodd"/>
			<path id="Vector" d="M238.45 167.46L234.75 167.31C234.71 167.31 234.67 167.29 234.64 167.27C234.63 167.25 234.62 167.23 234.61 167.22C234.61 167.2 234.6 167.18 234.6 167.16L234.97 157.91C234.97 157.87 234.99 157.83 235.02 157.81C235.05 157.78 235.09 157.76 235.13 157.76L238.82 157.91C238.86 157.91 238.9 157.93 238.93 157.96C238.94 157.97 238.95 157.99 238.96 158.01C238.96 158.02 238.97 158.04 238.97 158.06L238.6 167.31C238.6 167.33 238.6 167.35 238.59 167.37C238.58 167.39 238.57 167.4 238.56 167.42C238.54 167.43 238.52 167.44 238.5 167.45C238.49 167.46 238.47 167.46 238.45 167.46ZM234.91 167.02L238.3 167.15L238.65 158.2L235.26 158.07L234.91 167.02Z" fill="#FFFFFF" fill-opacity="1.000000" fill-rule="nonzero"/>
			<path id="Vector" d="M233.56 166.27C233.52 166.27 233.48 166.25 233.46 166.22C233.43 166.19 233.42 166.15 233.42 166.11L233.67 159.68C233.68 159.38 233.81 159.1 234.03 158.89C234.25 158.69 234.55 158.58 234.85 158.6L235.03 158.6C235.07 158.6 235.11 158.61 235.13 158.64C235.16 158.67 235.18 158.71 235.18 158.75C235.18 158.79 235.16 158.83 235.13 158.85C235.11 158.88 235.07 158.9 235.03 158.9L234.85 158.9C234.74 158.89 234.63 158.91 234.53 158.95C234.43 158.98 234.33 159.04 234.25 159.12C234.17 159.19 234.11 159.28 234.06 159.38C234.01 159.47 233.99 159.58 233.98 159.69L233.73 166.12C233.73 166.14 233.73 166.16 233.72 166.18C233.71 166.2 233.7 166.22 233.68 166.23C233.66 166.25 233.64 166.26 233.62 166.26C233.6 166.27 233.58 166.27 233.56 166.27Z" fill="#FFFFFF" fill-opacity="1.000000" fill-rule="nonzero"/>
			<path id="Vector" d="M226.87 168.1L247.69 168.1L246.48 192.78C246.48 193.43 246.22 194.06 245.76 194.52C245.29 194.98 244.67 195.23 244.01 195.23L230.56 195.23C229.9 195.23 229.27 194.98 228.81 194.52C228.35 194.06 228.09 193.43 228.09 192.78L226.87 168.1Z" fill="url(#paint_linear_3_649_0)" fill-opacity="0.620000" fill-rule="nonzero"/>
			<path id="Vector" d="M244.01 195.39L230.56 195.39C229.86 195.38 229.2 195.11 228.71 194.62C228.22 194.13 227.94 193.47 227.94 192.78L226.72 168.11C226.72 168.07 226.74 168.03 226.76 168C226.79 167.96 226.83 167.95 226.87 167.95L247.69 167.95C247.71 167.95 247.73 167.95 247.75 167.96C247.76 167.97 247.78 167.98 247.79 167.99C247.81 168.01 247.82 168.03 247.83 168.05C247.84 168.07 247.84 168.09 247.84 168.11L246.63 192.78C246.63 193.47 246.36 194.13 245.86 194.62C245.37 195.11 244.71 195.39 244.01 195.39ZM227.03 168.25L228.24 192.78C228.24 193.39 228.49 193.98 228.92 194.41C229.35 194.84 229.94 195.08 230.55 195.08L244.01 195.08C244.63 195.08 245.21 194.84 245.65 194.41C246.08 193.98 246.32 193.39 246.32 192.78L247.53 168.25L227.03 168.25Z" fill="#FFFFFF" fill-opacity="1.000000" fill-rule="nonzero"/>
			<path id="Vector" d="M247.31 172.75L227.31 172.75C227.27 172.75 227.23 172.73 227.2 172.71C227.18 172.68 227.16 172.64 227.16 172.6C227.16 172.56 227.18 172.52 227.2 172.49C227.23 172.46 227.27 172.45 227.31 172.45L247.31 172.45C247.35 172.45 247.38 172.46 247.41 172.49C247.44 172.52 247.46 172.56 247.46 172.6C247.46 172.62 247.45 172.64 247.45 172.66C247.44 172.68 247.43 172.69 247.41 172.71C247.4 172.72 247.38 172.73 247.36 172.74C247.35 172.75 247.33 172.75 247.31 172.75Z" fill="#FFFFFF" fill-opacity="1.000000" fill-rule="nonzero"/>
			<path id="Vector" d="M328.48 156.29L342.55 156.29L342.55 170.18L328.48 170.18L328.48 156.29Z" fill="url(#paint_linear_3_652_0)" fill-opacity="0.620000" fill-rule="evenodd"/>
			<path id="Vector" d="M342.56 170.33L328.48 170.33C328.44 170.33 328.4 170.31 328.37 170.28C328.34 170.26 328.33 170.22 328.32 170.18L328.32 156.29C328.33 156.25 328.34 156.22 328.37 156.19C328.4 156.16 328.44 156.14 328.48 156.14L342.56 156.14C342.6 156.14 342.64 156.16 342.66 156.19C342.69 156.22 342.71 156.25 342.71 156.29L342.71 170.18C342.71 170.22 342.69 170.26 342.66 170.28C342.64 170.31 342.6 170.33 342.56 170.33ZM328.63 170.03L342.4 170.03L342.4 156.45L328.63 156.45L328.63 170.03Z" fill="#FFFFFF" fill-opacity="1.000000" fill-rule="nonzero"/>
			<path id="Vector" d="M334.37 154.03L336.93 154.03L336.93 157.96L334.37 157.96L334.37 154.03Z" fill="#FFFFFF" fill-opacity="1.000000" fill-rule="evenodd"/>
			<path id="Vector" d="M340.28 159.65L332.75 159.65C332.71 159.65 332.67 159.64 332.64 159.61C332.61 159.58 332.59 159.54 332.59 159.5C332.59 159.46 332.61 159.42 332.64 159.39C332.67 159.37 332.71 159.35 332.75 159.35L340.28 159.35C340.32 159.35 340.36 159.37 340.39 159.39C340.42 159.42 340.43 159.46 340.43 159.5C340.43 159.54 340.42 159.58 340.39 159.61C340.36 159.64 340.32 159.65 340.28 159.65Z" fill="#FFFFFF" fill-opacity="1.000000" fill-rule="nonzero"/>
			<path id="Vector" d="M340.28 162.28L330.61 162.28C330.57 162.28 330.53 162.27 330.5 162.24C330.48 162.21 330.46 162.17 330.46 162.13C330.46 162.09 330.48 162.05 330.5 162.03C330.53 162 330.57 161.98 330.61 161.98L340.28 161.98C340.32 161.98 340.36 162 340.39 162.03C340.42 162.05 340.43 162.09 340.43 162.13C340.43 162.17 340.42 162.21 340.39 162.24C340.36 162.27 340.32 162.28 340.28 162.28Z" fill="#FFFFFF" fill-opacity="1.000000" fill-rule="nonzero"/>
			<path id="Vector" d="M340.35 164.91L330.61 164.91C330.57 164.91 330.53 164.9 330.5 164.87C330.48 164.84 330.46 164.8 330.46 164.76C330.46 164.72 330.48 164.68 330.5 164.66C330.53 164.63 330.57 164.61 330.61 164.61L340.35 164.61C340.37 164.61 340.39 164.62 340.41 164.62C340.43 164.63 340.45 164.64 340.46 164.66C340.47 164.67 340.49 164.69 340.49 164.71C340.5 164.72 340.5 164.74 340.5 164.76C340.5 164.78 340.5 164.8 340.49 164.82C340.49 164.84 340.47 164.86 340.46 164.87C340.45 164.88 340.43 164.9 340.41 164.9C340.39 164.91 340.37 164.91 340.35 164.91Z" fill="#FFFFFF" fill-opacity="1.000000" fill-rule="nonzero"/>
			<path id="Vector" d="M336.58 167.54L330.61 167.54C330.57 167.54 330.53 167.53 330.5 167.5C330.48 167.47 330.46 167.43 330.46 167.39C330.46 167.35 330.48 167.32 330.5 167.29C330.53 167.26 330.57 167.24 330.61 167.24L336.58 167.24C336.62 167.24 336.66 167.26 336.68 167.29C336.71 167.32 336.73 167.35 336.73 167.39C336.73 167.43 336.71 167.47 336.68 167.5C336.66 167.53 336.62 167.54 336.58 167.54Z" fill="#FFFFFF" fill-opacity="1.000000" fill-rule="nonzero"/>
		</g>
	</g>
</svg>
