<svg width="375" height="306" viewBox="0 0 375 306" fill="none" xmlns="http://www.w3.org/2000/svg">
<path d="M135.494 233.53C134.772 233.559 134.051 233.444 133.374 233.194C132.696 232.943 132.074 232.561 131.544 232.07C131.014 231.579 130.586 230.988 130.285 230.331C129.984 229.674 129.816 228.964 129.79 228.242L124.715 99.0325C124.686 98.3099 124.8 97.5888 125.051 96.9104C125.301 96.232 125.683 95.6096 126.174 95.0789C126.665 94.5481 127.256 94.1194 127.913 93.8173C128.57 93.5151 129.28 93.3455 130.003 93.318L252.757 88.5374C253.48 88.5088 254.201 88.623 254.879 88.8734C255.557 89.1238 256.18 89.5055 256.711 89.9967C257.241 90.4878 257.67 91.0788 257.972 91.7358C258.274 92.3928 258.444 93.1029 258.471 93.8255L263.506 222.02C263.572 223.752 262.947 225.44 261.769 226.711C260.59 227.983 258.955 228.734 257.223 228.8L135.494 233.53Z" fill="url(#paint0_linear_2107_596)"/>
<path d="M135.281 234.555C133.595 234.556 131.975 233.903 130.761 232.733C129.547 231.563 128.835 229.967 128.775 228.283L123.7 99.0731C123.634 97.3452 124.256 95.6618 125.43 94.3925C126.605 93.1232 128.235 92.3717 129.962 92.303L252.757 87.5325C253.612 87.4972 254.466 87.631 255.27 87.9263C256.074 88.2216 256.811 88.6726 257.44 89.2535C258.069 89.8343 258.577 90.5336 258.935 91.3112C259.293 92.0888 259.494 92.9294 259.527 93.7849L264.521 222.02C264.595 224.021 263.873 225.969 262.512 227.438C261.152 228.907 259.264 229.777 257.264 229.856L135.535 234.596L135.281 234.555ZM253.021 89.5524H252.838L130.084 94.333C128.895 94.3806 127.773 94.8977 126.964 95.771C126.156 96.6443 125.726 97.8025 125.77 98.9919L130.795 228.212C130.817 228.8 130.956 229.379 131.203 229.914C131.45 230.449 131.802 230.929 132.236 231.328C133.114 232.133 134.273 232.559 135.464 232.515L257.193 227.775C258.654 227.717 260.032 227.082 261.025 226.008C262.019 224.935 262.546 223.512 262.491 222.05L257.497 93.8661C257.452 92.7082 256.962 91.6124 256.127 90.8083C255.293 90.0042 254.18 89.5541 253.021 89.5524Z" fill="url(#paint1_linear_2107_596)"/>
<path d="M226.692 222.335H122.289C120.83 222.335 119.431 221.755 118.399 220.723C117.367 219.692 116.788 218.292 116.788 216.833V87.5223C116.786 86.7995 116.928 86.0835 117.204 85.4155C117.48 84.7474 117.885 84.1404 118.396 83.6293C118.907 83.1182 119.514 82.713 120.182 82.437C120.85 82.1611 121.566 82.0197 122.289 82.021H245.104C245.826 82.021 246.542 82.1633 247.209 82.4398C247.877 82.7162 248.483 83.1215 248.994 83.6323C249.505 84.1431 249.91 84.7496 250.186 85.417C250.463 86.0845 250.605 86.7999 250.605 87.5223V197.193L226.692 222.335Z" fill="white"/>
<path d="M226.692 223.35H122.289C120.561 223.347 118.904 222.66 117.681 221.439C116.457 220.218 115.768 218.562 115.762 216.833V87.5224C115.768 85.7941 116.457 84.1382 117.681 82.917C118.904 81.6959 120.561 81.0088 122.289 81.0061H245.104C246.831 81.0088 248.487 81.6962 249.709 82.9176C250.93 84.1391 251.618 85.795 251.62 87.5224V197.193C251.619 197.454 251.517 197.705 251.336 197.894L227.423 223.035C227.328 223.134 227.215 223.213 227.089 223.267C226.964 223.321 226.829 223.349 226.692 223.35ZM122.289 83.0361C121.098 83.0361 119.956 83.5084 119.113 84.3495C118.27 85.1906 117.795 86.3316 117.792 87.5224V216.833C117.798 218.023 118.274 219.163 119.116 220.003C119.958 220.844 121.099 221.317 122.289 221.32H226.255L249.6 196.787V87.5224C249.598 86.3334 249.124 85.1938 248.283 84.3531C247.443 83.5123 246.303 83.0388 245.114 83.0361H122.289Z" fill="url(#paint2_linear_2107_596)"/>
<path d="M226.692 222.335V202.928C226.694 201.537 227.248 200.204 228.232 199.22C229.215 198.237 230.548 197.683 231.939 197.68H250.646L226.692 222.335Z" fill="#FFBC0E"/>
<path d="M226.692 223.35C226.564 223.347 226.437 223.323 226.316 223.279C226.127 223.203 225.965 223.073 225.851 222.905C225.737 222.737 225.677 222.538 225.677 222.335V202.928C225.679 201.268 226.34 199.676 227.514 198.503C228.688 197.329 230.279 196.668 231.939 196.665H250.646C250.846 196.664 251.042 196.722 251.21 196.832C251.377 196.943 251.508 197.1 251.586 197.284C251.665 197.469 251.686 197.672 251.649 197.869C251.612 198.066 251.517 198.248 251.377 198.391L227.423 223.035C227.328 223.134 227.215 223.213 227.089 223.267C226.964 223.321 226.829 223.349 226.692 223.35ZM231.939 198.675C230.817 198.675 229.74 199.121 228.946 199.915C228.153 200.708 227.707 201.785 227.707 202.908V219.807L248.24 198.675H231.939Z" fill="url(#paint3_linear_2107_596)"/>
<path d="M226.692 114.816H167.822C167.553 114.816 167.294 114.709 167.104 114.518C166.914 114.328 166.807 114.07 166.807 113.801C166.807 113.531 166.914 113.273 167.104 113.083C167.294 112.893 167.553 112.786 167.822 112.786H226.692C226.961 112.786 227.219 112.893 227.41 113.083C227.6 113.273 227.707 113.531 227.707 113.801C227.707 114.07 227.6 114.328 227.41 114.518C227.219 114.709 226.961 114.816 226.692 114.816Z" fill="url(#paint4_linear_2107_596)"/>
<path d="M226.692 130.903H141.584C141.315 130.903 141.057 130.796 140.866 130.606C140.676 130.416 140.569 130.158 140.569 129.888C140.569 129.619 140.676 129.361 140.866 129.171C141.057 128.98 141.315 128.873 141.584 128.873H226.692C226.961 128.873 227.219 128.98 227.41 129.171C227.6 129.361 227.707 129.619 227.707 129.888C227.707 130.158 227.6 130.416 227.41 130.606C227.219 130.796 226.961 130.903 226.692 130.903Z" fill="url(#paint5_linear_2107_596)"/>
<path d="M226.692 147.001H141.584C141.315 147.001 141.057 146.894 140.866 146.704C140.676 146.514 140.569 146.256 140.569 145.986C140.569 145.717 140.676 145.459 140.866 145.269C141.057 145.078 141.315 144.971 141.584 144.971H226.692C226.961 144.971 227.219 145.078 227.41 145.269C227.6 145.459 227.707 145.717 227.707 145.986C227.707 146.256 227.6 146.514 227.41 146.704C227.219 146.894 226.961 147.001 226.692 147.001Z" fill="url(#paint6_linear_2107_596)"/>
<path d="M226.692 163.089H141.584C141.315 163.089 141.057 162.982 140.866 162.792C140.676 162.601 140.569 162.343 140.569 162.074C140.569 161.805 140.676 161.547 140.866 161.356C141.057 161.166 141.315 161.059 141.584 161.059H226.692C226.961 161.059 227.219 161.166 227.41 161.356C227.6 161.547 227.707 161.805 227.707 162.074C227.707 162.343 227.6 162.601 227.41 162.792C227.219 162.982 226.961 163.089 226.692 163.089Z" fill="url(#paint7_linear_2107_596)"/>
<path d="M226.692 179.187H141.584C141.315 179.187 141.057 179.08 140.866 178.89C140.676 178.699 140.569 178.441 140.569 178.172C140.569 177.903 140.676 177.645 140.866 177.454C141.057 177.264 141.315 177.157 141.584 177.157H226.692C226.961 177.157 227.219 177.264 227.41 177.454C227.6 177.645 227.707 177.903 227.707 178.172C227.707 178.441 227.6 178.699 227.41 178.89C227.219 179.08 226.961 179.187 226.692 179.187Z" fill="url(#paint8_linear_2107_596)"/>
<path d="M194.09 195.285H141.584C141.315 195.285 141.057 195.178 140.866 194.988C140.676 194.797 140.569 194.539 140.569 194.27C140.569 194.001 140.676 193.743 140.866 193.552C141.057 193.362 141.315 193.255 141.584 193.255H194.09C194.359 193.255 194.617 193.362 194.808 193.552C194.998 193.743 195.105 194.001 195.105 194.27C195.105 194.539 194.998 194.797 194.808 194.988C194.617 195.178 194.359 195.285 194.09 195.285Z" fill="url(#paint9_linear_2107_596)"/>
<path d="M151.358 100.636C150.044 100.702 148.751 100.282 147.726 99.4565C146.7 98.6313 146.014 97.4582 145.796 96.16L142.589 78.0524C142.428 77.2769 142.447 76.4749 142.644 75.7078C142.841 74.9407 143.211 74.2289 143.726 73.627C144.696 72.5613 145.992 71.847 147.412 71.5954C148.831 71.3438 150.294 71.5693 151.572 72.2365C152.261 72.6254 152.853 73.1669 153.302 73.8196C153.75 74.4722 154.044 75.2187 154.16 76.0021L155.053 81.0771C155.076 81.2084 155.074 81.343 155.045 81.4733C155.016 81.6035 154.962 81.7268 154.886 81.8362C154.81 81.9455 154.713 82.0388 154.6 82.1105C154.488 82.1823 154.362 82.2312 154.231 82.2545C154.1 82.2779 153.965 82.2752 153.835 82.2465C153.705 82.2178 153.581 82.1638 153.472 82.0874C153.363 82.0111 153.269 81.9139 153.198 81.8015C153.126 81.6891 153.077 81.5637 153.054 81.4324L152.16 76.3574C152.095 75.8695 151.919 75.4031 151.644 74.9947C151.37 74.5862 151.004 74.2467 150.577 74.0026C149.708 73.5683 148.723 73.4255 147.766 73.5956C146.81 73.7656 145.934 74.2394 145.268 74.9465C144.951 75.3215 144.724 75.7649 144.606 76.2421C144.488 76.7193 144.482 77.2173 144.588 77.6972L147.786 95.8048C148.212 98.1799 150.303 98.8498 152.181 98.5757C154.058 98.3017 155.784 96.8401 155.368 94.5157L154.708 90.811C154.661 90.5418 154.723 90.2649 154.88 90.0412C155.037 89.8176 155.276 89.6655 155.545 89.6183C155.815 89.5712 156.091 89.633 156.315 89.79C156.539 89.9471 156.691 90.1865 156.738 90.4557L157.388 94.1605C158.027 97.7333 155.439 100.119 152.566 100.626C152.165 100.662 151.761 100.665 151.358 100.636Z" fill="url(#paint10_linear_2107_596)"/>
<path d="M131.394 190.084L120.094 194.631L94.7071 131.543C94.2589 130.429 94.2715 129.183 94.7422 128.078C95.2128 126.974 96.103 126.101 97.2168 125.653L100.108 124.49C101.221 124.042 102.468 124.054 103.572 124.525C104.677 124.996 105.549 125.886 105.997 126.999L131.384 190.088L131.394 190.084Z" fill="#F56132"/>
<path d="M120.107 195.681C119.97 195.683 119.835 195.656 119.711 195.6C119.463 195.497 119.266 195.299 119.163 195.051L93.7877 131.99C93.509 131.317 93.3656 130.596 93.3656 129.868C93.3656 129.14 93.509 128.419 93.7877 127.747C94.0719 127.075 94.4877 126.466 95.0107 125.957C95.5336 125.448 96.1531 125.049 96.8327 124.783L99.7153 123.616C101.077 123.069 102.599 123.082 103.95 123.653C105.302 124.223 106.374 125.304 106.932 126.661L132.307 189.713C132.407 189.962 132.405 190.24 132.3 190.488C132.196 190.735 131.997 190.931 131.749 191.032L120.492 195.63C120.368 195.672 120.237 195.689 120.107 195.681ZM101.837 125.25C101.388 125.25 100.943 125.336 100.527 125.504L97.665 126.661C96.8021 127.012 96.1136 127.691 95.7502 128.549C95.3869 129.407 95.3783 130.374 95.7263 131.238L120.726 193.346L130.125 189.56L105.074 127.452C104.812 126.803 104.362 126.246 103.781 125.854C103.201 125.462 102.517 125.251 101.816 125.25H101.837Z" fill="url(#paint11_linear_2107_596)"/>
<path d="M120.117 194.676L131.404 190.129L132.611 204.948L133.078 210.601L129.495 206.196L120.117 194.676Z" fill="white"/>
<path d="M133.078 211.616C132.928 211.615 132.781 211.581 132.645 211.516C132.51 211.451 132.391 211.357 132.297 211.241L119.325 195.315C119.224 195.192 119.154 195.047 119.12 194.892C119.086 194.736 119.088 194.575 119.128 194.421C119.167 194.267 119.243 194.124 119.347 194.005C119.452 193.885 119.584 193.792 119.731 193.732L131.028 189.185C131.175 189.127 131.333 189.105 131.489 189.119C131.646 189.133 131.797 189.183 131.931 189.266C132.068 189.349 132.184 189.462 132.269 189.598C132.353 189.734 132.405 189.888 132.419 190.047L134.093 210.52C134.108 210.735 134.055 210.95 133.94 211.132C133.825 211.315 133.654 211.456 133.454 211.535C133.336 211.587 133.208 211.615 133.078 211.616ZM121.771 195.102L131.799 207.424L130.5 191.57L121.771 195.102Z" fill="url(#paint12_linear_2107_596)"/>
<path d="M129.495 206.196L132.611 204.948L133.078 210.601L129.495 206.196Z" fill="url(#paint13_linear_2107_596)"/>
<path d="M133.078 211.616C132.928 211.615 132.781 211.581 132.645 211.516C132.51 211.451 132.391 211.357 132.297 211.241L128.704 206.846C128.602 206.721 128.532 206.574 128.499 206.417C128.465 206.26 128.469 206.098 128.511 205.942C128.552 205.789 128.629 205.648 128.735 205.53C128.84 205.412 128.972 205.32 129.12 205.262L132.236 204.004C132.383 203.944 132.542 203.92 132.7 203.934C132.858 203.947 133.011 203.997 133.146 204.08C133.281 204.163 133.395 204.276 133.478 204.411C133.562 204.546 133.613 204.698 133.626 204.856L134.093 210.52C134.108 210.735 134.055 210.95 133.94 211.132C133.825 211.315 133.655 211.456 133.454 211.535C133.336 211.587 133.208 211.615 133.078 211.616ZM131.15 206.622L131.799 207.424L131.718 206.409L131.15 206.622Z" fill="url(#paint14_linear_2107_596)"/>
<g clip-path="url(#clip0_2107_596)">
<path d="M238.5 113.583C229.065 113.583 221.417 105.935 221.417 96.5C221.417 87.0648 229.065 79.4166 238.5 79.4166C247.935 79.4166 255.583 87.0648 255.583 96.5C255.583 105.935 247.935 113.583 238.5 113.583ZM236.797 103.333L248.875 91.2537L246.459 88.8381L236.797 98.5021L231.964 93.6693L229.548 96.0848L236.797 103.333Z" fill="url(#paint15_linear_2107_596)"/>
</g>
<defs>
<linearGradient id="paint0_linear_2107_596" x1="124.71" y1="196.847" x2="263.338" y2="79.9468" gradientUnits="userSpaceOnUse">
<stop stop-color="#FFA450"/>
<stop offset="0.604477" stop-color="#FF5C00"/>
</linearGradient>
<linearGradient id="paint1_linear_2107_596" x1="123.695" y1="197.386" x2="264.308" y2="78.7673" gradientUnits="userSpaceOnUse">
<stop stop-color="#FFA450"/>
<stop offset="0.604477" stop-color="#FF5C00"/>
</linearGradient>
<linearGradient id="paint2_linear_2107_596" x1="115.762" y1="187.335" x2="251.781" y2="72.9697" gradientUnits="userSpaceOnUse">
<stop stop-color="#FFA450"/>
<stop offset="0.604477" stop-color="#FF5C00"/>
</linearGradient>
<linearGradient id="paint3_linear_2107_596" x1="225.677" y1="216.598" x2="251.259" y2="194.648" gradientUnits="userSpaceOnUse">
<stop stop-color="#FFA450"/>
<stop offset="0.604477" stop-color="#FF5C00"/>
</linearGradient>
<linearGradient id="paint4_linear_2107_596" x1="166.807" y1="114.302" x2="166.956" y2="110.37" gradientUnits="userSpaceOnUse">
<stop stop-color="#FFA450"/>
<stop offset="0.604477" stop-color="#FF5C00"/>
</linearGradient>
<linearGradient id="paint5_linear_2107_596" x1="140.569" y1="130.39" x2="140.673" y2="126.455" gradientUnits="userSpaceOnUse">
<stop stop-color="#FFA450"/>
<stop offset="0.604477" stop-color="#FF5C00"/>
</linearGradient>
<linearGradient id="paint6_linear_2107_596" x1="140.569" y1="146.488" x2="140.673" y2="142.552" gradientUnits="userSpaceOnUse">
<stop stop-color="#FFA450"/>
<stop offset="0.604477" stop-color="#FF5C00"/>
</linearGradient>
<linearGradient id="paint7_linear_2107_596" x1="140.569" y1="162.575" x2="140.673" y2="158.64" gradientUnits="userSpaceOnUse">
<stop stop-color="#FFA450"/>
<stop offset="0.604477" stop-color="#FF5C00"/>
</linearGradient>
<linearGradient id="paint8_linear_2107_596" x1="140.569" y1="178.673" x2="140.673" y2="174.738" gradientUnits="userSpaceOnUse">
<stop stop-color="#FFA450"/>
<stop offset="0.604477" stop-color="#FF5C00"/>
</linearGradient>
<linearGradient id="paint9_linear_2107_596" x1="140.569" y1="194.771" x2="140.735" y2="190.84" gradientUnits="userSpaceOnUse">
<stop stop-color="#FFA450"/>
<stop offset="0.604477" stop-color="#FF5C00"/>
</linearGradient>
<linearGradient id="paint10_linear_2107_596" x1="142.481" y1="93.2776" x2="163.753" y2="83.6347" gradientUnits="userSpaceOnUse">
<stop stop-color="#FFA450"/>
<stop offset="0.604477" stop-color="#FF5C00"/>
</linearGradient>
<linearGradient id="paint11_linear_2107_596" x1="93.3656" y1="177.348" x2="147.797" y2="151.532" gradientUnits="userSpaceOnUse">
<stop stop-color="#FFA450"/>
<stop offset="0.604477" stop-color="#FF5C00"/>
</linearGradient>
<linearGradient id="paint12_linear_2107_596" x1="119.096" y1="205.923" x2="138.157" y2="194.73" gradientUnits="userSpaceOnUse">
<stop stop-color="#FFA450"/>
<stop offset="0.604477" stop-color="#FF5C00"/>
</linearGradient>
<linearGradient id="paint13_linear_2107_596" x1="129.495" y1="209.171" x2="134.164" y2="206.565" gradientUnits="userSpaceOnUse">
<stop stop-color="#FFA450"/>
<stop offset="0.604477" stop-color="#FF5C00"/>
</linearGradient>
<linearGradient id="paint14_linear_2107_596" x1="128.476" y1="209.672" x2="135.264" y2="205.3" gradientUnits="userSpaceOnUse">
<stop stop-color="#FFA450"/>
<stop offset="0.604477" stop-color="#FF5C00"/>
</linearGradient>
<linearGradient id="paint15_linear_2107_596" x1="222.829" y1="103.46" x2="245.308" y2="103.365" gradientUnits="userSpaceOnUse">
<stop stop-color="#37C871"/>
<stop offset="1" stop-color="#5FE394"/>
</linearGradient>
<clipPath id="clip0_2107_596">
<rect width="41" height="41" fill="white" transform="translate(218 76)"/>
</clipPath>
</defs>
</svg>
