<svg width="19" height="18" viewBox="0 0 19 18" fill="none" xmlns="http://www.w3.org/2000/svg">
<path d="M9.17004 9.75C9.58426 9.75 9.92004 9.41421 9.92004 9C9.92004 8.58579 9.58426 8.25 9.17004 8.25C8.75583 8.25 8.42004 8.58579 8.42004 9C8.42004 9.41421 8.75583 9.75 9.17004 9.75Z" stroke="#666666" stroke-width="2" stroke-linecap="round" stroke-linejoin="round"/>
<path d="M9.17004 4.5C9.58426 4.5 9.92004 4.16421 9.92004 3.75C9.92004 3.33579 9.58426 3 9.17004 3C8.75583 3 8.42004 3.33579 8.42004 3.75C8.42004 4.16421 8.75583 4.5 9.17004 4.5Z" stroke="#666666" stroke-width="2" stroke-linecap="round" stroke-linejoin="round"/>
<path d="M9.17004 15C9.58426 15 9.92004 14.6642 9.92004 14.25C9.92004 13.8358 9.58426 13.5 9.17004 13.5C8.75583 13.5 8.42004 13.8358 8.42004 14.25C8.42004 14.6642 8.75583 15 9.17004 15Z" stroke="#666666" stroke-width="2" stroke-linecap="round" stroke-linejoin="round"/>
</svg>
